<svg width="152" height="36" viewBox="0 0 152 36" fill="none" xmlns="http://www.w3.org/2000/svg">
<path d="M21.25 20.8906C21.25 21.526 21.1458 22.1198 20.9375 22.6719C20.7292 23.224 20.4427 23.7292 20.0781 24.1875C19.7135 24.6354 19.2865 25.0365 18.7969 25.3906C18.3177 25.7448 17.7969 26.0417 17.2344 26.2812C16.6823 26.5208 16.1094 26.7031 15.5156 26.8281C14.9219 26.9427 14.3385 27 13.7656 27H0.53125V4.5H12.625C13.1562 4.5 13.7135 4.54167 14.2969 4.625C14.8802 4.69792 15.4479 4.81771 16 4.98438C16.5625 5.15104 17.0938 5.36979 17.5938 5.64062C18.1042 5.91146 18.5469 6.24479 18.9219 6.64062C19.3073 7.02604 19.6094 7.47396 19.8281 7.98438C20.0573 8.49479 20.1719 9.07812 20.1719 9.73438C20.1719 10.3594 20.0469 10.9271 19.7969 11.4375C19.5469 11.9479 19.2083 12.4062 18.7812 12.8125C18.3646 13.2083 17.8802 13.5625 17.3281 13.875C16.7865 14.1771 16.2135 14.4427 15.6094 14.6719C16.3698 14.8802 17.0885 15.1562 17.7656 15.5C18.4531 15.8438 19.0521 16.2656 19.5625 16.7656C20.0833 17.2656 20.4948 17.8594 20.7969 18.5469C21.099 19.224 21.25 20.0052 21.25 20.8906ZM13.875 10.2812C13.875 9.01042 13.5365 8.08333 12.8594 7.5C12.1927 6.91667 11.2396 6.625 10 6.625H6.73438V13.9219H9.46875C10.0312 13.9219 10.5781 13.8542 11.1094 13.7188C11.6406 13.5729 12.1094 13.3542 12.5156 13.0625C12.9323 12.7604 13.2604 12.3802 13.5 11.9219C13.75 11.4635 13.875 10.9167 13.875 10.2812ZM14.9688 20.5C14.9688 19.8854 14.8906 19.3125 14.7344 18.7812C14.5781 18.2396 14.3385 17.776 14.0156 17.3906C13.6927 16.9948 13.2865 16.6875 12.7969 16.4688C12.3177 16.2396 11.75 16.125 11.0938 16.125H6.73438V24.8125H10.5469C11.1823 24.8125 11.7708 24.7083 12.3125 24.5C12.8542 24.2917 13.3229 24 13.7188 23.625C14.1146 23.25 14.4219 22.7969 14.6406 22.2656C14.8594 21.7344 14.9688 21.1458 14.9688 20.5ZM40.5 8.95312L33.9375 24.8281C33.1875 26.6406 32.349 28.4323 31.4219 30.2031C30.5052 31.9844 29.5104 33.6927 28.4375 35.3281L26.375 34.0781C26.6354 33.6094 26.9427 33.0677 27.2969 32.4531C27.651 31.8385 28 31.2031 28.3438 30.5469C28.6875 29.8906 29.0052 29.2396 29.2969 28.5938C29.5885 27.9583 29.8125 27.375 29.9688 26.8438L22.0781 8.95312H27.3594L32.7188 21.1562L36.8438 8.95312H40.5ZM49.5156 27H44.2188V11.0469H40.9375V8.95312H44.2188V2.3125H49.5156V8.95312H54.9844V11.0469H49.5156V27ZM60.9688 18.4375C61.6146 18.5833 62.2604 18.6979 62.9062 18.7812C63.5521 18.8646 64.2031 18.9062 64.8594 18.9062C65.5469 18.9062 66.1823 18.8438 66.7656 18.7188C67.3594 18.5833 67.8698 18.3646 68.2969 18.0625C68.7344 17.75 69.0781 17.3385 69.3281 16.8281C69.5781 16.3177 69.7031 15.6823 69.7031 14.9219C69.7031 14.3073 69.6198 13.7448 69.4531 13.2344C69.2865 12.724 69.0365 12.2865 68.7031 11.9219C68.3802 11.5573 67.9792 11.276 67.5 11.0781C67.0208 10.8698 66.4635 10.7656 65.8281 10.7656C65.2344 10.7656 64.6979 10.875 64.2188 11.0938C63.75 11.3125 63.3333 11.6094 62.9688 11.9844C62.6146 12.349 62.3073 12.776 62.0469 13.2656C61.7969 13.7552 61.5885 14.2656 61.4219 14.7969C61.2552 15.3281 61.1354 15.8646 61.0625 16.4062C60.9896 16.9479 60.9531 17.4583 60.9531 17.9375C60.9531 18.0208 60.9531 18.1042 60.9531 18.1875C60.9531 18.2708 60.9583 18.3542 60.9688 18.4375ZM73.9844 14.875C73.9844 15.6146 73.8646 16.276 73.625 16.8594C73.3854 17.4323 73.0573 17.9375 72.6406 18.375C72.2344 18.8125 71.7604 19.1823 71.2188 19.4844C70.6771 19.7865 70.099 20.0365 69.4844 20.2344C68.8698 20.4219 68.2344 20.5573 67.5781 20.6406C66.9323 20.724 66.3021 20.7656 65.6875 20.7656C64.9062 20.7656 64.1354 20.7135 63.375 20.6094C62.6146 20.4948 61.8646 20.3177 61.125 20.0781C61.2396 20.7656 61.4219 21.4219 61.6719 22.0469C61.9219 22.6615 62.2552 23.2031 62.6719 23.6719C63.0885 24.1302 63.599 24.4948 64.2031 24.7656C64.8177 25.0365 65.5417 25.1719 66.375 25.1719C66.9271 25.1719 67.4531 25.0885 67.9531 24.9219C68.4531 24.7552 68.9115 24.5208 69.3281 24.2188C69.7448 23.9167 70.1094 23.5573 70.4219 23.1406C70.7448 22.724 71.0052 22.2604 71.2031 21.75L73.4844 22.5938C73.1406 23.4167 72.6667 24.1302 72.0625 24.7344C71.4688 25.3281 70.7917 25.8229 70.0312 26.2188C69.2812 26.6042 68.4792 26.8906 67.625 27.0781C66.7812 27.2656 65.9427 27.3594 65.1094 27.3594C63.7344 27.3594 62.4635 27.1302 61.2969 26.6719C60.1302 26.2031 59.125 25.5521 58.2812 24.7188C57.4375 23.8854 56.776 22.8906 56.2969 21.7344C55.8177 20.5781 55.5781 19.3125 55.5781 17.9375C55.5781 16.5625 55.8177 15.2969 56.2969 14.1406C56.776 12.9844 57.4375 11.9896 58.2812 11.1562C59.125 10.3229 60.1302 9.67708 61.2969 9.21875C62.4635 8.75 63.7344 8.51562 65.1094 8.51562C65.776 8.51562 66.4583 8.5625 67.1562 8.65625C67.8542 8.75 68.5312 8.90104 69.1875 9.10938C69.8438 9.30729 70.4635 9.56771 71.0469 9.89062C71.6302 10.2135 72.1354 10.6146 72.5625 11.0938C73 11.5625 73.3438 12.1094 73.5938 12.7344C73.8542 13.3594 73.9844 14.0729 73.9844 14.875ZM98.3438 20.8906C98.3438 21.526 98.2396 22.1198 98.0312 22.6719C97.8229 23.224 97.5365 23.7292 97.1719 24.1875C96.8073 24.6354 96.3802 25.0365 95.8906 25.3906C95.4115 25.7448 94.8906 26.0417 94.3281 26.2812C93.776 26.5208 93.2031 26.7031 92.6094 26.8281C92.0156 26.9427 91.4323 27 90.8594 27H77.625V4.5H89.7188C90.25 4.5 90.8073 4.54167 91.3906 4.625C91.974 4.69792 92.5417 4.81771 93.0938 4.98438C93.6562 5.15104 94.1875 5.36979 94.6875 5.64062C95.1979 5.91146 95.6406 6.24479 96.0156 6.64062C96.401 7.02604 96.7031 7.47396 96.9219 7.98438C97.151 8.49479 97.2656 9.07812 97.2656 9.73438C97.2656 10.3594 97.1406 10.9271 96.8906 11.4375C96.6406 11.9479 96.3021 12.4062 95.875 12.8125C95.4583 13.2083 94.974 13.5625 94.4219 13.875C93.8802 14.1771 93.3073 14.4427 92.7031 14.6719C93.4635 14.8802 94.1823 15.1562 94.8594 15.5C95.5469 15.8438 96.1458 16.2656 96.6562 16.7656C97.1771 17.2656 97.5885 17.8594 97.8906 18.5469C98.1927 19.224 98.3438 20.0052 98.3438 20.8906ZM90.9688 10.2812C90.9688 9.01042 90.6302 8.08333 89.9531 7.5C89.2865 6.91667 88.3333 6.625 87.0938 6.625H83.8281V13.9219H86.5625C87.125 13.9219 87.6719 13.8542 88.2031 13.7188C88.7344 13.5729 89.2031 13.3542 89.6094 13.0625C90.026 12.7604 90.3542 12.3802 90.5938 11.9219C90.8438 11.4635 90.9688 10.9167 90.9688 10.2812ZM92.0625 20.5C92.0625 19.8854 91.9844 19.3125 91.8281 18.7812C91.6719 18.2396 91.4323 17.776 91.1094 17.3906C90.7865 16.9948 90.3802 16.6875 89.8906 16.4688C89.4115 16.2396 88.8438 16.125 88.1875 16.125H83.8281V24.8125H87.6406C88.276 24.8125 88.8646 24.7083 89.4062 24.5C89.9479 24.2917 90.4167 24 90.8125 23.625C91.2083 23.25 91.5156 22.7969 91.7344 22.2656C91.9531 21.7344 92.0625 21.1458 92.0625 20.5ZM106.812 27H101.531V0.640625H103.562L106.812 6.125V27ZM130.281 17.9375C130.281 18.875 130.156 19.7552 129.906 20.5781C129.656 21.401 129.307 22.1615 128.859 22.8594C128.422 23.5573 127.891 24.1875 127.266 24.75C126.641 25.3021 125.953 25.7708 125.203 26.1562C124.464 26.5417 123.667 26.8385 122.812 27.0469C121.969 27.2552 121.099 27.3594 120.203 27.3594C119.307 27.3594 118.438 27.2552 117.594 27.0469C116.75 26.8385 115.953 26.5417 115.203 26.1562C114.464 25.7708 113.781 25.3021 113.156 24.75C112.531 24.1875 111.995 23.5573 111.547 22.8594C111.109 22.1615 110.766 21.401 110.516 20.5781C110.266 19.7448 110.141 18.8646 110.141 17.9375C110.141 17.0104 110.266 16.1354 110.516 15.3125C110.766 14.4792 111.109 13.7135 111.547 13.0156C111.995 12.3177 112.531 11.6927 113.156 11.1406C113.781 10.5781 114.464 10.1042 115.203 9.71875C115.953 9.33333 116.75 9.03646 117.594 8.82812C118.438 8.61979 119.307 8.51562 120.203 8.51562C121.099 8.51562 121.969 8.61979 122.812 8.82812C123.667 9.03646 124.464 9.33333 125.203 9.71875C125.953 10.1042 126.641 10.5781 127.266 11.1406C127.891 11.6927 128.422 12.3177 128.859 13.0156C129.307 13.7135 129.656 14.4792 129.906 15.3125C130.156 16.1354 130.281 17.0104 130.281 17.9375ZM124.906 17.9375C124.906 17.4375 124.875 16.9115 124.812 16.3594C124.76 15.7969 124.667 15.25 124.531 14.7188C124.396 14.1771 124.208 13.6615 123.969 13.1719C123.74 12.6719 123.453 12.2396 123.109 11.875C122.766 11.5 122.354 11.2031 121.875 10.9844C121.396 10.7552 120.839 10.6406 120.203 10.6406C119.599 10.6406 119.062 10.7552 118.594 10.9844C118.125 11.2135 117.714 11.5208 117.359 11.9062C117.016 12.2812 116.724 12.7188 116.484 13.2188C116.255 13.7188 116.068 14.2396 115.922 14.7812C115.776 15.3125 115.672 15.8542 115.609 16.4062C115.547 16.9479 115.516 17.4583 115.516 17.9375C115.516 18.4167 115.547 18.9323 115.609 19.4844C115.672 20.026 115.776 20.5677 115.922 21.1094C116.068 21.651 116.255 22.1719 116.484 22.6719C116.724 23.1615 117.016 23.599 117.359 23.9844C117.714 24.3594 118.125 24.6615 118.594 24.8906C119.062 25.1198 119.599 25.2344 120.203 25.2344C120.828 25.2344 121.38 25.125 121.859 24.9062C122.339 24.6771 122.75 24.375 123.094 24C123.448 23.625 123.74 23.1927 123.969 22.7031C124.198 22.2135 124.38 21.6979 124.516 21.1562C124.661 20.6146 124.76 20.0677 124.812 19.5156C124.875 18.9635 124.906 18.4375 124.906 17.9375ZM151.797 24.8281C151.797 26.2656 151.583 27.6198 151.156 28.8906C150.729 30.1615 150.109 31.2708 149.297 32.2188C148.484 33.1771 147.484 33.9323 146.297 34.4844C145.12 35.0469 143.776 35.3281 142.266 35.3281C141.432 35.3281 140.589 35.2344 139.734 35.0469C138.891 34.8594 138.089 34.5677 137.328 34.1719C136.578 33.7865 135.901 33.2917 135.297 32.6875C134.703 32.0938 134.234 31.3906 133.891 30.5781L136.172 29.7188C136.37 30.2292 136.625 30.6979 136.938 31.125C137.26 31.5521 137.63 31.9167 138.047 32.2188C138.464 32.5312 138.922 32.7708 139.422 32.9375C139.922 33.1146 140.448 33.2031 141 33.2031C142.042 33.2031 142.911 32.9896 143.609 32.5625C144.318 32.1354 144.885 31.5781 145.312 30.8906C145.74 30.2031 146.047 29.4219 146.234 28.5469C146.422 27.6823 146.516 26.8021 146.516 25.9062V24.8438C145.891 25.6979 145.135 26.3333 144.25 26.75C143.375 27.1562 142.411 27.3594 141.359 27.3594C139.984 27.3594 138.755 27.1146 137.672 26.625C136.589 26.1354 135.672 25.4688 134.922 24.625C134.172 23.7708 133.599 22.7708 133.203 21.625C132.807 20.4792 132.609 19.25 132.609 17.9375C132.609 16.625 132.807 15.3958 133.203 14.25C133.599 13.1042 134.172 12.1094 134.922 11.2656C135.672 10.4115 136.589 9.73958 137.672 9.25C138.755 8.76042 139.984 8.51562 141.359 8.51562C142.057 8.51562 142.719 8.61979 143.344 8.82812C143.979 9.03646 144.557 9.33333 145.078 9.71875C145.609 10.0938 146.073 10.5521 146.469 11.0938C146.875 11.625 147.193 12.2188 147.422 12.875L149.766 8.95312H151.797V24.8281ZM146.484 17.9375C146.484 17.4688 146.458 16.974 146.406 16.4531C146.365 15.9323 146.286 15.4167 146.172 14.9062C146.057 14.3958 145.896 13.9115 145.688 13.4531C145.49 12.9844 145.229 12.5729 144.906 12.2188C144.594 11.8542 144.214 11.5677 143.766 11.3594C143.318 11.151 142.797 11.0469 142.203 11.0469C141.609 11.0469 141.094 11.1562 140.656 11.375C140.219 11.5833 139.844 11.8698 139.531 12.2344C139.219 12.5885 138.958 13 138.75 13.4688C138.552 13.9375 138.396 14.4271 138.281 14.9375C138.167 15.4479 138.083 15.9635 138.031 16.4844C137.99 16.9948 137.969 17.4792 137.969 17.9375C137.969 18.3958 137.99 18.8854 138.031 19.4062C138.083 19.9271 138.167 20.4427 138.281 20.9531C138.396 21.4635 138.552 21.9531 138.75 22.4219C138.958 22.8906 139.219 23.3073 139.531 23.6719C139.844 24.026 140.219 24.3125 140.656 24.5312C141.094 24.7396 141.609 24.8438 142.203 24.8438C142.745 24.8438 143.224 24.7344 143.641 24.5156C144.068 24.2865 144.438 23.9844 144.75 23.6094C145.073 23.2344 145.344 22.8073 145.562 22.3281C145.781 21.849 145.958 21.3542 146.094 20.8438C146.229 20.3333 146.328 19.8281 146.391 19.3281C146.453 18.8177 146.484 18.3542 146.484 17.9375Z" fill="#4f46e5"/>
</svg>
